<svg width="42" height="42" viewBox="0 0 42 42" fill="none" xmlns="http://www.w3.org/2000/svg">
    <rect width="42" height="42" rx="21" fill="#5C5C5C" />
    <g clip-path="url(#clip0_45_3247)">
        <path
            d="M22.6714 23.2536C22.1739 23.5853 21.5959 23.7606 21 23.7606C20.4041 23.7606 19.8262 23.5853 19.3286 23.2536L11.1332 17.7898C11.0877 17.7595 11.0434 17.7279 11 17.6954V26.6484C11 27.6748 11.833 28.4895 12.8411 28.4895H29.1588C30.1853 28.4895 31 27.6565 31 26.6484V17.6953C30.9565 17.7279 30.9121 17.7596 30.8665 17.7899L22.6714 23.2536Z"
            fill="#D9D9D9" />
        <path
            d="M11.7832 16.8146L19.9786 22.2785C20.2889 22.4853 20.6444 22.5887 21 22.5887C21.3555 22.5887 21.7111 22.4853 22.0214 22.2785L30.2168 16.8146C30.7072 16.4879 31 15.941 31 15.3508C31 14.3359 30.1743 13.5103 29.1595 13.5103H12.8405C11.8257 13.5103 11 14.3359 11 15.3517C11 15.941 11.2928 16.4879 11.7832 16.8146Z"
            fill="#D9D9D9" />
    </g>
    <defs>
        <clipPath id="clip0_45_3247">
            <rect width="20" height="20" fill="white" transform="translate(11 11)" />
        </clipPath>
    </defs>
</svg>
