<svg width="42" height="42" viewBox="0 0 42 42" fill="none" xmlns="http://www.w3.org/2000/svg">
    <rect width="42" height="42" rx="21" fill="#5C5C5C" />
    <path
        d="M21.67 11.1551L27.1389 17.3076C27.3985 17.6019 27.1908 18.0648 26.7971 18.0648H23.5478V24.8274C23.5478 25.3293 23.1411 25.736 22.6392 25.736H19.3423C18.8404 25.736 18.4337 25.3293 18.4337 24.8274V18.0648H15.1843C14.7906 18.0648 14.5829 17.6019 14.8468 17.3076L20.3114 11.1551C20.6705 10.7484 21.3066 10.7484 21.67 11.1551ZM30.0854 29.9415V24.0875C30.0854 23.5856 29.6786 23.1789 29.1768 23.1789H27.5845C27.0827 23.1789 26.6759 23.5856 26.6759 24.0875V27.4407H15.3055V24.0875C15.3055 23.5856 14.8988 23.1789 14.3969 23.1789H12.809C12.3071 23.1789 11.9004 23.5856 11.9004 24.0875V29.9415C11.9004 30.4434 12.3071 30.8501 12.809 30.8501H29.1768C29.6786 30.8501 30.0854 30.4434 30.0854 29.9415Z"
        fill="#D9D9D9" />
</svg>
