<svg width="50" height="50" viewBox="0 0 50 50" fill="none" xmlns="http://www.w3.org/2000/svg">
    <path
        d="M34.1667 19.1667H15.8333C15.3733 19.1667 15 18.7933 15 18.3333C15 17.8733 15.3733 17.5 15.8333 17.5H34.1667C34.6267 17.5 35 17.8733 35 18.3333C35 18.7933 34.6267 19.1667 34.1667 19.1667Z"
        fill="white" />
    <path
        d="M34.1667 25.8333H15.8333C15.3733 25.8333 15 25.46 15 25C15 24.54 15.3733 24.1666 15.8333 24.1666H34.1667C34.6267 24.1666 35 24.54 35 25C35 25.46 34.6267 25.8333 34.1667 25.8333Z"
        fill="white" />
    <path
        d="M34.1667 32.5H15.8333C15.3733 32.5 15 32.1267 15 31.6667C15 31.2067 15.3733 30.8334 15.8333 30.8334H34.1667C34.6267 30.8334 35 31.2067 35 31.6667C35 32.1267 34.6267 32.5 34.1667 32.5Z"
        fill="white" />
</svg>
