<svg width="20" height="20" viewBox="0 0 20 20" fill="none" xmlns="http://www.w3.org/2000/svg">
    <path
        d="M12.5 3.125H3.75C2.71447 3.125 1.875 3.96447 1.875 5V17.5C1.875 18.5355 2.71447 19.375 3.75 19.375H12.5C13.5355 19.375 14.375 18.5355 14.375 17.5V5C14.375 3.96447 13.5355 3.125 12.5 3.125Z"
        fill="#D9D9D9" />
    <path
        d="M18.1258 2.5V15C18.1243 15.4968 17.9263 15.9729 17.575 16.3242C17.2237 16.6755 16.7476 16.8735 16.2508 16.875H15.6258V5C15.6258 4.1712 15.2965 3.37634 14.7105 2.79029C14.1244 2.20424 13.3296 1.875 12.5008 1.875H5.73828C5.86723 1.51028 6.10583 1.19437 6.42137 0.970586C6.73691 0.746799 7.11394 0.626087 7.50078 0.625H16.2508C16.7476 0.626484 17.2237 0.824504 17.575 1.17581C17.9263 1.52712 18.1243 2.00318 18.1258 2.5Z"
        fill="#D9D9D9" />
</svg>
